<?xml version="1.0" encoding="utf-8"?>
<!-- Generator: Adobe Illustrator 25.2.1, SVG Export Plug-In . SVG Version: 6.00 Build 0)  -->
<svg version="1.1" xmlns="http://www.w3.org/2000/svg" xmlns:xlink="http://www.w3.org/1999/xlink" x="0px" y="0px"
	 viewBox="0 0 1000 1000" style="enable-background:new 0 0 1000 1000;" xml:space="preserve">
<style type="text/css">
	.st0{fill:url(#SVGID_1_);}
	.st1{fill:#0037E9;}
	.st2{display:none;}
	.st3{display:inline;fill:#FFFFFF;}
</style>
<g id="Camada_5">
	<linearGradient id="SVGID_1_" gradientUnits="userSpaceOnUse" x1="546.1064" y1="143.703" x2="562.8998" y2="532.2947">
		<stop  offset="0" style="stop-color:#000000"/>
		<stop  offset="1" style="stop-color:#000000"/>
		<stop  offset="1" style="stop-color:#FFFFFF"/>
	</linearGradient>
	<path class="st0" d="M803.78,290.98c-3.98-11.58-15.57-44.08-45.74-69.71c-40.88-34.73-90.13-34.81-121.3-35.15
		c-54.96-0.6-100.34,18.6-128.62,30.4c-17.66,7.36-35.85,16.76-35.85,16.76c-10.66,5.51-27.13,14.09-47.21,27.85
		c-4.73,3.24-20.58,14.25-39.85,31.15c-5,4.38-7.09,6.42-33.77,32.63c-12.08,11.87-24.27,23.87-39.49,40.12
		c-2.58,2.75-8.15,8.77-13.59,15.67c0.42,9.47,3.32,18.6,5.6,27.82c2.64,10.65,6.95,21.39,11.57,31.33
		c2.36,5.07,4.26,10.59,7.07,15.41c2.69,4.61,5.52,9.17,8.26,13.75c2.85,4.76,5.74,9.34,8.96,13.86c1.44,2.02,2.66,4.17,4.16,6.14
		c55.56-79.77,132.2-144.76,220.07-186.36c18.54-8.78,50.01-24.81,87.55-20.25c10.77,1.31,32.69,4.6,48.56,22.11
		c10.12,11.16,13.5,23.42,15.17,29.78c3.85,14.63,6.16,40.43-1.29,67.55c-2.09,7.59-5.13,15.99-0.94,20.71
		c3.7,4.17,11.32,3.55,17.42,2.27h0c3.31-0.05,5.79,9.25,6.65,12.14c0.21,0.7,4.65,8.72,13.54,24.75
		c4.76,8.58,12.38,20.82,24.82,36.34c8.1-15.36,17.72-36.58,25.17-62.96c3.63-12.84,9.81-35.25,11.29-65.13
		C813.07,348.13,814.37,321.84,803.78,290.98z"/>
	<path d="M697.97,583.62c-3.86-9.63-7.6-19.37-12.06-28.74c-4.61-9.68-10.03-19.01-15.25-28.37c-0.28-0.5-0.56-1.01-0.83-1.52
		c-1.73-2.06-3.23-4.31-4.75-6.71c-2.15-3.39-5.08-6.3-7.55-9.49C552.71,614.81,464.98,685.34,419.54,704.75
		c-9.41,4.02-30.25,12.68-56.69,9.79c-7.75-0.85-46.19-4.97-63.68-32.49c-21.47-33.78-3.25-90.02-9.51-91.07
		c-1.22-0.21-2.16,1.87-4.57,1.66c-3.98-0.36-5.03-7-9.01-12.58c-7.3-10.22-11-15.41-13.34-18.87c-5.67-8.39-9.92-15.31-12.65-19.76
		c-6.85-11.18-5.77-10.22-9.51-15.86c-8.05-12.14-10-11.97-13.97-19.98c-3.63-7.33-4.42-12.37-6.59-12.32
		c-1.2,0.03-2.18,1.58-5.51,9.85c-2.71,6.75-4.07,10.12-5.21,13.76c-2.87,9.15-4.67,16.23-5.7,20.26
		c-5.44,21.22-4.99,18.07-7.13,27.14c-3.51,14.93-5.5,27.34-5.5,27.34c0,0-2.88,17.73-3.78,34.2
		c-4.24,77.62,35.95,128.26,35.95,128.26c35.94,44.75,97.16,63.84,154.41,59.67c14.54-1.06,27.81-3,40.72-5.98
		c56.78-13.11,97.56-38.25,119.54-52.46c18.79-12.15,32.29-22.91,50.81-37.69c12.24-9.77,31.71-25.71,54.75-47.05
		c19.67-18.23,31.74-31.14,55.9-56.96c1.76-1.89,3.55-3.81,5.34-5.75C703.52,599.51,701.13,591.48,697.97,583.62z"/>
	<path class="st1" d="M446,525.48"/>
	<path d="M752.08,448.24c-1.47-2.22-2.95-4.43-4.45-6.63c-6.13-8.99-12.55-17.79-19.19-26.41c-6.66-8.65-13.55-17.12-20.63-25.43
		c-7.06-8.3-14.3-16.44-21.68-24.46c-10.25-11.14-15.34-16.73-22.55-23.74c-3.27-3.19-4.21-3.99-29.64-26.26
		c0,0-0.01-0.01-0.03-0.03c-12.21-10.01-16.31-13.79-23.53-19.74c-8.57,2.54-17.01,5.82-25.32,8.96
		c-9.69,3.66-18.95,9.44-28.25,14.03c-9.49,4.68-18.54,9.97-27.76,15.15c-5.23,2.93-10.75,5.88-15.98,9.11
		c24.82,18.84,71.86,56.55,109.8,100.32c18.71,21.59,34.08,43.34,35.02,44.68c10.43,14.83,22.27,31.67,34,55.53
		c11.71,23.81,21.19,43.08,24.09,69.85c2.45,22.66,5.16,44.44-7.31,63.84c-21.69,33.74-72.52,34.88-83.29,35.11
		c-7.93,0.18-15.62-0.73-15.62-0.73c-4.39-0.52-8.14-1.24-11.09-1.9c-2.61,2.1-5.21,4.21-7.82,6.31c-1.01,0.75-2.67,1.99-4.7,3.56
		c-4.75,3.65-7.38,5.85-13.37,10.63c0,0-3.7,2.95-6.68,5.29c-7.94,6.23-14.84,10.9-20.53,14.73c-13.95,9.4-27.36,17.36-34.79,21.67
		c16.97,10.94,90.29,55.54,176.93,33.93c19.03-4.75,70.39-17.57,102.02-64.15c19.04-28.04,22.59-55.24,24.78-79.57
		C821.29,586.55,793.71,511.36,752.08,448.24z"/>
	<path d="M412.43,695.95c5.04-1.84,9.75-4.25,14.5-6.73c8.39-4.38,16.4-9.52,24.3-14.71c7.75-5.09,15.67-10.13,23.01-15.79
		c4.81-3.71,9.54-8.18,14.54-11.96c-12.43-9.6-27.7-21.85-44.71-36.55c-23.99-20.74-47.48-41.05-73.79-71.02
		c-20.26-23.09-39.7-45.52-57.62-80.19c-3.82-7.4-23.42-46.57-26-85.13c-2.16-32.27,8-50.52,11.41-56.66
		c3.5-6.29,11.16-19.68,26.88-29.35c13.92-8.56,27.06-9.83,38.33-10.8c10.66-0.91,18.55-0.14,21.42,0.23
		c5.95,0.77,10.9,2.02,14.59,3.14c1.67-1.25,4.28-3.23,7.51-5.69c1.74-1.33,3.11-2.39,7.13-5.45c4.58-3.49,6.21-4.72,8.46-6.31
		c0.49-0.35,1.98-1.4,3.98-2.74c2.94-1.98,4.54-2.95,9.79-6.25c5.68-3.57,4.87-3.11,6.59-4.16c3.59-2.2,6.32-3.76,9.16-5.37
		c4.26-2.42,7.5-4.18,10.51-5.8c4.92-2.66,8.66-4.6,9.69-5.14c3.31-1.72,7.35-3.78,12-6.07c3.73-1.78,7.54-3.54,11.43-5.27
		c1.02-0.45,2.04-0.9,3.06-1.35c-7.08-3.28-16.6-7.5-28.05-11.98c-8.77-3.43-18.6-7.22-31.8-11.15c-6.58-1.96-17.79-5.21-32.63-7.85
		c0,0-19.05-3.38-37.36-4c-78.87-2.65-128.06,37.11-128.06,37.11c-65.28,52.77-56.77,151.12-54.71,174.99
		c5.91,68.34,37.97,115.08,73.06,164.26c24.95,34.97,69.8,88.72,143.25,137.52C405.71,698.64,409.13,697.14,412.43,695.95z"/>
	<path class="st1" d="M446,525.48"/>
</g>
<g id="Camada_2" class="st2">
	<path class="st3" d="M803.78,290.98c-3.98-11.58-15.57-44.08-45.74-69.71c-40.88-34.73-90.13-34.81-121.3-35.15
		c-54.96-0.6-100.34,18.6-128.62,30.4c-17.66,7.36-35.85,16.76-35.85,16.76c-10.66,5.51-27.13,14.09-47.21,27.85
		c-4.73,3.24-20.58,14.25-39.85,31.15c-5,4.38-7.09,6.42-33.77,32.63c-12.08,11.87-24.27,23.87-39.49,40.12
		c-2.58,2.75-8.15,8.77-13.59,15.67c0.42,9.47,3.32,18.6,5.6,27.82c2.64,10.65,6.95,21.39,11.57,31.33
		c2.36,5.07,4.26,10.59,7.07,15.41c2.69,4.61,5.52,9.17,8.26,13.75c2.85,4.76,5.74,9.34,8.96,13.86c1.44,2.02,2.66,4.17,4.16,6.14
		c55.56-79.77,132.2-144.76,220.07-186.36c18.54-8.78,50.01-24.81,87.55-20.25c10.77,1.31,32.69,4.6,48.56,22.11
		c10.12,11.16,13.5,23.42,15.17,29.78c3.85,14.63,6.16,40.43-1.29,67.55c-2.09,7.59-5.13,15.99-0.94,20.71
		c3.7,4.17,11.32,3.55,17.42,2.27h0c3.31-0.05,5.79,9.25,6.65,12.14c0.21,0.7,4.65,8.72,13.54,24.75
		c4.76,8.58,12.38,20.82,24.82,36.34c8.1-15.36,17.72-36.58,25.17-62.96c3.63-12.84,9.81-35.25,11.29-65.13
		C813.07,348.13,814.37,321.84,803.78,290.98z"/>
	<path class="st3" d="M697.97,583.62c-3.86-9.63-7.6-19.37-12.06-28.74c-4.61-9.68-10.03-19.01-15.25-28.37
		c-0.28-0.5-0.56-1.01-0.83-1.52c-1.73-2.06-3.23-4.31-4.75-6.71c-2.15-3.39-5.08-6.3-7.55-9.49
		C552.71,614.81,464.98,685.34,419.54,704.75c-9.41,4.02-30.25,12.68-56.69,9.79c-7.75-0.85-46.19-4.97-63.68-32.49
		c-21.47-33.78-3.25-90.02-9.51-91.07c-1.22-0.21-2.16,1.87-4.57,1.66c-3.98-0.36-5.03-7-9.01-12.58
		c-7.3-10.22-11-15.41-13.34-18.87c-5.67-8.39-9.92-15.31-12.65-19.76c-6.85-11.18-5.77-10.22-9.51-15.86
		c-8.05-12.14-10-11.97-13.97-19.98c-3.63-7.33-4.42-12.37-6.59-12.32c-1.2,0.03-2.18,1.58-5.51,9.85
		c-2.71,6.75-4.07,10.12-5.21,13.76c-2.87,9.15-4.67,16.23-5.7,20.26c-5.44,21.22-4.99,18.07-7.13,27.14
		c-3.51,14.93-5.5,27.34-5.5,27.34c0,0-2.88,17.73-3.78,34.2c-4.24,77.62,35.95,128.26,35.95,128.26
		c35.94,44.75,97.16,63.84,154.41,59.67c14.54-1.06,27.81-3,40.72-5.98c56.78-13.11,97.56-38.25,119.54-52.46
		c18.79-12.15,32.29-22.91,50.81-37.69c12.24-9.77,31.71-25.71,54.75-47.05c19.67-18.23,31.74-31.14,55.9-56.96
		c1.76-1.89,3.55-3.81,5.34-5.75C703.52,599.51,701.13,591.48,697.97,583.62z"/>
	<path class="st3" d="M446,525.48"/>
	<path class="st3" d="M752.08,448.24c-1.47-2.22-2.95-4.43-4.45-6.63c-6.13-8.99-12.55-17.79-19.19-26.41
		c-6.66-8.65-13.55-17.12-20.63-25.43c-7.06-8.3-14.3-16.44-21.68-24.46c-10.25-11.14-15.34-16.73-22.55-23.74
		c-3.27-3.19-4.21-3.99-29.64-26.26c0,0-0.01-0.01-0.03-0.03c-12.21-10.01-16.31-13.79-23.53-19.74
		c-8.57,2.54-17.01,5.82-25.32,8.96c-9.69,3.66-18.95,9.44-28.25,14.03c-9.49,4.68-18.54,9.97-27.76,15.15
		c-5.23,2.93-10.75,5.88-15.98,9.11c24.82,18.84,71.86,56.55,109.8,100.32c18.71,21.59,34.08,43.34,35.02,44.68
		c10.43,14.83,22.27,31.67,34,55.53c11.71,23.81,21.19,43.08,24.09,69.85c2.45,22.66,5.16,44.44-7.31,63.84
		c-21.69,33.74-72.52,34.88-83.29,35.11c-7.93,0.18-15.62-0.73-15.62-0.73c-4.39-0.52-8.14-1.24-11.09-1.9
		c-2.61,2.1-5.21,4.21-7.82,6.31c-1.01,0.75-2.67,1.99-4.7,3.56c-4.75,3.65-7.38,5.85-13.37,10.63c0,0-3.7,2.95-6.68,5.29
		c-7.94,6.23-14.84,10.9-20.53,14.73c-13.95,9.4-27.36,17.36-34.79,21.67c16.97,10.94,90.29,55.54,176.93,33.93
		c19.03-4.75,70.39-17.57,102.02-64.15c19.04-28.04,22.59-55.24,24.78-79.57C821.29,586.55,793.71,511.36,752.08,448.24z"/>
	<path class="st3" d="M412.43,695.95c5.04-1.84,9.75-4.25,14.5-6.73c8.39-4.38,16.4-9.52,24.3-14.71
		c7.75-5.09,15.67-10.13,23.01-15.79c4.81-3.71,9.54-8.18,14.54-11.96c-12.43-9.6-27.7-21.85-44.71-36.55
		c-23.99-20.74-47.48-41.05-73.79-71.02c-20.26-23.09-39.7-45.52-57.62-80.19c-3.82-7.4-23.42-46.57-26-85.13
		c-2.16-32.27,8-50.52,11.41-56.66c3.5-6.29,11.16-19.68,26.88-29.35c13.92-8.56,27.06-9.83,38.33-10.8
		c10.66-0.91,18.55-0.14,21.42,0.23c5.95,0.77,10.9,2.02,14.59,3.14c1.67-1.25,4.28-3.23,7.51-5.69c1.74-1.33,3.11-2.39,7.13-5.45
		c4.58-3.49,6.21-4.72,8.46-6.31c0.49-0.35,1.98-1.4,3.98-2.74c2.94-1.98,4.54-2.95,9.79-6.25c5.68-3.57,4.87-3.11,6.59-4.16
		c3.59-2.2,6.32-3.76,9.16-5.37c4.26-2.42,7.5-4.18,10.51-5.8c4.92-2.66,8.66-4.6,9.69-5.14c3.31-1.72,7.35-3.78,12-6.07
		c3.73-1.78,7.54-3.54,11.43-5.27c1.02-0.45,2.04-0.9,3.06-1.35c-7.08-3.28-16.6-7.5-28.05-11.98c-8.77-3.43-18.6-7.22-31.8-11.15
		c-6.58-1.96-17.79-5.21-32.63-7.85c0,0-19.05-3.38-37.36-4c-78.87-2.65-128.06,37.11-128.06,37.11
		c-65.28,52.77-56.77,151.12-54.71,174.99c5.91,68.34,37.97,115.08,73.06,164.26c24.95,34.97,69.8,88.72,143.25,137.52
		C405.71,698.64,409.13,697.14,412.43,695.95z"/>
	<path class="st3" d="M446,525.48"/>
</g>
</svg>
